HIERARCHY
ROOT HipCenter
{
    OFFSET 0.0 0.0 -0.0
    CHANNELS 6 Xposition Yposition Zposition Zrotation Xrotation Yrotation
    JOINT Spine
    {
        OFFSET 0.0 27.443359375 0.0
        CHANNELS 3 Zrotation Xrotation Yrotation
        JOINT ShoulderCenter
        {
            OFFSET 0.0 20.645967483520508 0.0
            CHANNELS 3 Zrotation Xrotation Yrotation
            JOINT LeftShoulder
            {
                OFFSET 17.64444923400879 0.0 0.0
                CHANNELS 3 Zrotation Xrotation Yrotation
                JOINT LeftElbow
                {
                    OFFSET 21.97926139831543 0.0 0.0
                    CHANNELS 3 Zrotation Xrotation Yrotation
                    JOINT LeftWrist
                    {
                        OFFSET 21.985363006591797 0.0 0.0
                        CHANNELS 3 Zrotation Xrotation Yrotation
                        JOINT LeftHand
                        {
                            OFFSET 8.353336334228516 0.0 0.0
                            CHANNELS 3 Zrotation Xrotation Yrotation
                            End Site
                            {
                                OFFSET 3.341334342956543 0.0 0.0
                            }
                        }
                    }
                }
            }
            JOINT RightShoulder
            {
                OFFSET -17.64444923400879 0.0 0.0
                CHANNELS 3 Zrotation Xrotation Yrotation
                JOINT RightElbow
                {
                    OFFSET -21.97926139831543 0.0 0.0
                    CHANNELS 3 Zrotation Xrotation Yrotation
                    JOINT RightWrist
                    {
                        OFFSET -21.985363006591797 0.0 0.0
                        CHANNELS 3 Zrotation Xrotation Yrotation
                        JOINT RightHand
                        {
                            OFFSET -8.353336334228516 0.0 0.0
                            CHANNELS 3 Zrotation Xrotation Yrotation
                            End Site
                            {
                                OFFSET -3.341334342956543 0.0 0.0
                            }
                        }
                    }
                }
            }
            End Site
            {
                OFFSET 0.0 8.25838851928711 0.0
            }
        }
    }
    JOINT LeftHip
    {
        OFFSET 8.848532676696777 0.0 0.0
        CHANNELS 3 Zrotation Xrotation Yrotation
        JOINT LeftKnee
        {
            OFFSET 0.0 -30.84750747680664 0.0
            CHANNELS 3 Zrotation Xrotation Yrotation
            JOINT LeftAnkle
            {
                OFFSET 0.0 -35.10664749145508 0.0
                CHANNELS 3 Zrotation Xrotation Yrotation
                JOINT LeftFoot
                {
                    OFFSET 0.0 -11.924406051635742 0.0
                    CHANNELS 3 Zrotation Xrotation Yrotation
                    End Site
                    {
                        OFFSET 0.0 0.0 4.769762992858887
                    }
                }
            }
        }
    }
    JOINT RightHip
    {
        OFFSET -8.848532676696777 0.0 0.0
        CHANNELS 3 Zrotation Xrotation Yrotation
        JOINT RightKnee
        {
            OFFSET 0.0 -30.84750747680664 0.0
            CHANNELS 3 Zrotation Xrotation Yrotation
            JOINT RightAnkle
            {
                OFFSET 0.0 -35.10664749145508 0.0
                CHANNELS 3 Zrotation Xrotation Yrotation
                JOINT RightFoot
                {
                    OFFSET 0.0 -11.924406051635742 0.0
                    CHANNELS 3 Zrotation Xrotation Yrotation
                    End Site
                    {
                        OFFSET 0.0 0.0 4.769762992858887
                    }
                }
            }
        }
    }
}
MOTION
Frames: 4
Frame Time: 0.03333333333333333
17.33915901184082 18.960861206054688 -373.5246887207031 -2.922537616072003 15.034917117641672 167.47534224733857 0.3342046800772594 -1.7850847861263266 0.04214552576761871 1.6771201619405974e-07 -9.044509698979456e-07 -4.608449302011057 -83.45309901271732 -10.620150449080947 1.202946263832026 -4.743001189236864e-06 1.6390299424825251e-06 16.39781923297781 179.99999629035943 -84.50113963675066 -159.32485614180206 -3.531125038440127e-31 6.3611093629270335e-15 6.3611093629270335e-15 71.58016318280353 -45.76991871891635 -5.685638804759223 -6.1482286223201e-06 4.713107800784284e-06 -14.151452770716052 4.2478281898051107e-07 -47.63616614085815 -13.652368232169206 0.0 0.0 -6.361109362927032e-15 14.9816383630242 -5.017268965444721 31.187744959038238 -10.4137125380552 1.7099399787131904 0.15917703427728155 22.091120329888508 -16.318998088073158 4.841263877283955 -6.3611093629270335e-15 1.7655625192200634e-31 -3.1805546814635168e-15 -7.213965102813404 -9.589004145682006 -25.607090902003797 9.395447878298105 1.2009778785767102 -0.2830729483353519 -52.038839015191755 58.549523702796805 34.4252600039986 0.0 0.0 -3.4787316828507214e-15
17.344219207763672 18.95047950744629 -373.5244140625 -2.9358886762553467 15.033009182671824 167.34527591614926 0.34694788287580597 -1.7824946689083256 0.04224815027563591 -2.682352627315106e-07 9.630773887372772e-07 -4.511287263226342 -83.43176514129716 -9.714187584611313 1.1391036021223078 4.081657277714895e-06 -4.1289747986959103e-07 15.928374592527652 -9.934892442454548e-06 -77.96501119916068 22.520633067471895 0.0 0.0 0.0 71.47841994817506 -47.19284986039622 -5.815122128312337 1.10326580250099e-06 -2.4358697643676414e-06 -14.53822756603097 -2.479580917255184e-06 -32.328077674332974 -12.7561899678779 0.0 -3.1805546814635176e-15 0.0 14.939584211988024 -4.938106741070166 31.220694925289 -10.235825475763944 1.5698229273419133 0.14091108876291458 75.54857418307576 61.292432108193 -67.92613616074976 7.951386703658791e-16 0.0 0.0 -7.083099918571233 -9.582493434057746 -25.563752826387525 9.03396321598011 1.4471565873948238 -0.33331221866084176 -50.11414384188552 56.03396171186566 32.14135096277536 0.0 0.0 -3.975693351829396e-15
17.372360229492188 18.924068450927734 -373.5133056640625 -2.9422628505880737 15.013579965898389 167.29984674356263 0.35661983105269107 -1.7824635777874813 0.047087073406588416 4.46401626862356e-08 -7.345720828074729e-07 -4.234707063855938 -82.96779472209086 -11.388446081001849 0.9663736795936646 3.4499830875354776e-07 -4.3304319038849185e-06 15.799229756457567 -7.426348436252288e-06 -79.69969310448074 22.48312572653941 6.3611093629270335e-15 1.7655625192200634e-31 3.1805546814635168e-15 71.34898138286307 -47.87332716797304 -5.985219030903832 4.8049550362464905e-06 -2.6087853999713422e-06 -14.467190823952688 -5.3062257564748034e-06 -42.15439873682841 -11.092338862338606 -1.272221872585407e-14 0.0 0.0 15.141568848528394 -4.919808764655216 31.3100045396815 -10.522980854185013 1.9544063458812448 0.17420606647950027 75.11353051747325 61.37938232981988 -67.50356171641992 -7.951386703658792e-16 0.0 0.0 -7.065629518164922 -9.65580102366279 -25.535842846384543 9.531613688748438 1.466164089965022 -0.3550851861800004 -81.77022080602548 65.15201979408151 66.16923207473874 -6.620859447075238e-32 6.3611093629270335e-15 1.1927080055488188e-15
17.57110023498535 18.867168426513672 -373.4662170410156 -2.531522350018702 14.923114500797276 167.1110752282971 0.5098622099645498 -1.8899280316566338 0.039431361040850745 -6.453768483658708e-08 6.984999613587067e-07 -4.133489182887427 -82.60501975965748 -11.90388263421788 1.1228516555502388 3.725655446582078e-06 7.248823151607611e-06 15.621341897979427 -4.165138934725476e-06 -75.17375697973246 21.38425863605618 0.0 0.0 -9.541664044390547e-15 70.38173804943985 -52.157665669222446 -7.049514100725234 5.246341135168181e-06 -3.870460238698638e-06 -13.67088442808605 -4.15336752036238e-06 -12.680690390571984 -18.403081834897897 -6.361109362927032e-15 -6.361109362927032e-15 -3.531125038440127e-31 15.99989482205222 -4.871840644020524 31.472705394915028 -10.579831669799228 1.713744709713483 0.14638045067076566 75.45481288425715 61.512541019425186 -68.13720525401902 3.975693351829396e-16 0.0 0.0 -8.546586934763546 -7.059726613543474 -25.96123290240664 12.437970339533534 -1.5384117701860902 0.37538461570993037 -84.99539473587765 65.54348084734357 69.58757806966078 0.0 0.0 -1.1927080055488188e-15
